#N canvas 635 244 408 265 12;
#X obj 1 1 cnv 15 240 30 empty empty pdinstance_tester 20 12 0 18 -233017
-66577 0;
#X text 19 41 this object detects if the host is compiled with PDINSTANCE=1
;
#X obj 20 127 pdinstance_tester;
#X obj 20 166 tgl 15 0 empty empty empty 17 7 0 10 -262144 -1 -1 0
1;
#X obj 40 166 print;
#X text 88 166 returns 1 if instances are enabled;
#X obj 20 95 loadbang;
#X connect 2 0 3 0;
#X connect 2 0 4 0;
#X connect 6 0 2 0;
